<svg viewBox="0 0 1440 373" fill="none" xmlns="http://www.w3.org/2000/svg">
	<g clip-path="url(#clip0_8310_390511)">
		<g opacity="0.6" filter="url(#filter0_f_8310_390511)">
			<ellipse cx="719" cy="394.5" rx="408" ry="194.5" fill="url(#paint0_radial_8310_390511)"/>
		</g>
		<rect x="553" y="42" width="334" height="380" rx="17" fill="white"/>
		<path d="M553 59.9641C553 50.0428 561.043 42 570.964 42H869.036C878.957 42 887 50.0428 887 59.9641V98.8519C887 108.773 878.957 116.816 869.036 116.816H570.964C561.043 116.816 553 108.773 553 98.8519V59.9641Z"
			  fill="white"/>
		<g clip-path="url(#clip1_8310_390511)">
			<path d="M582.975 66.5787H584.658V57.1653H582.982L580.523 58.8875V60.5053L582.865 58.8614H582.975V66.5787ZM590.644 66.8135C592.894 66.8135 594.231 64.9869 594.231 61.8753C594.231 58.7505 592.875 56.9305 590.644 56.9305C588.406 56.9305 587.049 58.7505 587.049 61.8622C587.049 64.9869 588.386 66.8135 590.644 66.8135ZM590.644 65.4175C589.45 65.4175 588.752 64.1976 588.752 61.8622C588.752 59.5464 589.463 58.333 590.644 58.333C591.824 58.333 592.529 59.5399 592.529 61.8622C592.529 64.1976 591.837 65.4175 590.644 65.4175ZM597.072 65.2805C597.692 65.2805 598.116 64.8369 598.116 64.2498C598.116 63.6562 597.692 63.2191 597.072 63.2191C596.459 63.2191 596.028 63.6562 596.028 64.2498C596.028 64.8369 596.459 65.2805 597.072 65.2805ZM597.072 60.5184C597.692 60.5184 598.116 60.0813 598.116 59.4942C598.116 58.9006 597.692 58.4635 597.072 58.4635C596.459 58.4635 596.028 58.9006 596.028 59.4942C596.028 60.0813 596.459 60.5184 597.072 60.5184ZM603.501 66.8135C605.751 66.8135 607.089 64.9869 607.089 61.8753C607.089 58.7505 605.732 56.9305 603.501 56.9305C601.263 56.9305 599.906 58.7505 599.906 61.8622C599.906 64.9869 601.244 66.8135 603.501 66.8135ZM603.501 65.4175C602.307 65.4175 601.609 64.1976 601.609 61.8622C601.609 59.5464 602.32 58.333 603.501 58.333C604.682 58.333 605.386 59.5399 605.386 61.8622C605.386 64.1976 604.695 65.4175 603.501 65.4175ZM612.239 66.8135C614.489 66.8135 615.827 64.9869 615.827 61.8753C615.827 58.7505 614.47 56.9305 612.239 56.9305C610.001 56.9305 608.644 58.7505 608.644 61.8622C608.644 64.9869 609.982 66.8135 612.239 66.8135ZM612.239 65.4175C611.045 65.4175 610.347 64.1976 610.347 61.8622C610.347 59.5464 611.058 58.333 612.239 58.333C613.42 58.333 614.124 59.5399 614.124 61.8622C614.124 64.1976 613.433 65.4175 612.239 65.4175Z"
				  fill="#191919"/>
		</g>
		<path fill-rule="evenodd" clip-rule="evenodd"
			  d="M826.378 57.6899C826.357 57.7931 826.357 57.9173 826.357 58.1656V65.0237C826.357 65.272 826.357 65.3962 826.378 65.4994C826.462 65.9234 826.794 66.2549 827.218 66.3392C827.321 66.3597 827.445 66.3597 827.693 66.3597C827.942 66.3597 828.066 66.3597 828.169 66.3392C828.593 66.2549 828.924 65.9234 829.009 65.4994C829.029 65.3962 829.029 65.272 829.029 65.0237V58.1656C829.029 57.9173 829.029 57.7931 829.009 57.6899C828.924 57.2659 828.593 56.9345 828.169 56.8501C828.066 56.8296 827.942 56.8296 827.693 56.8296C827.445 56.8296 827.321 56.8296 827.218 56.8501C826.794 56.9345 826.462 57.2659 826.378 57.6899ZM822.171 60.3032C822.171 60.0549 822.171 59.9307 822.192 59.8275C822.276 59.4035 822.607 59.0721 823.031 58.9877C823.135 58.9672 823.259 58.9672 823.507 58.9672C823.755 58.9672 823.879 58.9672 823.983 58.9877C824.407 59.0721 824.738 59.4035 824.822 59.8275C824.843 59.9307 824.843 60.0549 824.843 60.3032V65.0237C824.843 65.272 824.843 65.3962 824.822 65.4994C824.738 65.9234 824.407 66.2549 823.983 66.3392C823.879 66.3597 823.755 66.3597 823.507 66.3597C823.259 66.3597 823.135 66.3597 823.031 66.3392C822.607 66.2549 822.276 65.9234 822.192 65.4994C822.171 65.3962 822.171 65.272 822.171 65.0237V60.3032ZM818.094 61.876C818.074 61.9793 818.074 62.1034 818.074 62.3517V65.0237C818.074 65.272 818.074 65.3962 818.094 65.4994C818.179 65.9234 818.51 66.2549 818.934 66.3392C819.037 66.3597 819.162 66.3597 819.41 66.3597C819.658 66.3597 819.782 66.3597 819.886 66.3392C820.31 66.2549 820.641 65.9234 820.725 65.4994C820.746 65.3962 820.746 65.272 820.746 65.0237V62.3517C820.746 62.1034 820.746 61.9793 820.725 61.876C820.641 61.452 820.31 61.1206 819.886 61.0363C819.782 61.0157 819.658 61.0157 819.41 61.0157C819.162 61.0157 819.037 61.0157 818.934 61.0363C818.51 61.1206 818.179 61.452 818.094 61.876ZM813.819 63.6574C813.799 63.7606 813.799 63.8848 813.799 64.1331V65.0237C813.799 65.272 813.799 65.3962 813.819 65.4994C813.904 65.9234 814.235 66.2549 814.659 66.3392C814.762 66.3597 814.887 66.3597 815.135 66.3597C815.383 66.3597 815.507 66.3597 815.611 66.3392C816.035 66.2549 816.366 65.9234 816.45 65.4994C816.471 65.3962 816.471 65.272 816.471 65.0237V64.1331C816.471 63.8848 816.471 63.7606 816.45 63.6574C816.366 63.2334 816.035 62.9019 815.611 62.8176C815.507 62.7971 815.383 62.7971 815.135 62.7971C814.887 62.7971 814.762 62.7971 814.659 62.8176C814.235 62.9019 813.904 63.2334 813.819 63.6574Z"
			  fill="#191919"/>
		<path fill-rule="evenodd" clip-rule="evenodd"
			  d="M840.341 58.7158C842.331 58.7159 844.245 59.4806 845.687 60.8518C845.796 60.9577 845.97 60.9563 846.077 60.8488L847.115 59.801C847.169 59.7465 847.199 59.6726 847.199 59.5958C847.198 59.5189 847.167 59.4454 847.112 59.3915C843.327 55.7635 837.355 55.7635 833.569 59.3915C833.514 59.4454 833.483 59.5188 833.482 59.5957C833.482 59.6726 833.512 59.7465 833.566 59.801L834.605 60.8488C834.712 60.9565 834.885 60.9578 834.994 60.8518C836.436 59.4805 838.351 58.7158 840.341 58.7158ZM840.341 62.1247C841.435 62.1247 842.489 62.5311 843.3 63.265C843.409 63.3692 843.582 63.3669 843.689 63.26L844.726 62.2122C844.78 62.1572 844.811 62.0826 844.81 62.0052C844.809 61.9277 844.777 61.8538 844.722 61.7999C842.253 59.504 838.431 59.504 835.963 61.7999C835.907 61.8538 835.875 61.9277 835.875 62.0052C835.874 62.0827 835.904 62.1573 835.959 62.2122L836.996 63.26C837.103 63.3669 837.275 63.3692 837.385 63.265C838.195 62.5316 839.248 62.1252 840.341 62.1247ZM842.334 64.6254C842.389 64.5709 842.42 64.496 842.418 64.4184C842.417 64.3407 842.383 64.2671 842.326 64.2149C841.18 63.246 839.502 63.246 838.356 64.2149C838.299 64.267 838.265 64.3406 838.264 64.4183C838.262 64.496 838.292 64.5709 838.348 64.6254L840.142 66.4357C840.194 66.4889 840.266 66.5188 840.341 66.5188C840.416 66.5188 840.487 66.4889 840.54 66.4357L842.334 64.6254Z"
			  fill="#191919"/>
		<path opacity="0.35" fill-rule="evenodd" clip-rule="evenodd"
			  d="M854.849 56.4733H868.05C869.162 56.4733 869.565 56.5891 869.971 56.8064C870.378 57.0238 870.697 57.3427 870.914 57.7491C871.131 58.1555 871.247 58.5587 871.247 59.6703V63.519C871.247 64.6307 871.131 65.0338 870.914 65.4402C870.697 65.8466 870.378 66.1656 869.971 66.3829C869.565 66.6002 869.162 66.716 868.05 66.716H854.849C853.738 66.716 853.335 66.6002 852.928 66.3829C852.522 66.1656 852.203 65.8466 851.985 65.4402C851.768 65.0338 851.652 64.6307 851.652 63.519V59.6703C851.652 58.5587 851.768 58.1555 851.985 57.7491C852.203 57.3427 852.522 57.0238 852.928 56.8064C853.335 56.5891 853.738 56.4733 854.849 56.4733ZM854.849 57.364C853.97 57.364 853.663 57.4233 853.348 57.5918C853.097 57.7262 852.905 57.918 852.771 58.1692C852.602 58.4844 852.543 58.7913 852.543 59.6703V63.519C852.543 64.3981 852.602 64.705 852.771 65.0202C852.905 65.2713 853.097 65.4632 853.348 65.5975C853.663 65.7661 853.97 65.8253 854.849 65.8253H868.05C868.929 65.8253 869.236 65.7661 869.551 65.5975C869.802 65.4632 869.994 65.2713 870.128 65.0202C870.297 64.705 870.356 64.3981 870.356 63.519V59.6703C870.356 58.7913 870.297 58.4844 870.128 58.1692C869.994 57.918 869.802 57.7262 869.551 57.5918C869.236 57.4233 868.929 57.364 868.05 57.364H854.849ZM873.473 61.5412C873.473 62.6426 872.137 63.3226 872.137 63.3226V59.7599C872.137 59.7599 873.473 60.4399 873.473 61.5412Z"
			  fill="#191919"/>
		<rect x="853.434" y="58.1804" width="16.032" height="6.82844" rx="1.42507" fill="#191919"/>
		<g clip-path="url(#clip2_8310_390511)">
			<g clip-path="url(#clip3_8310_390511)">
				<path d="M573.04 99.0027L582.197 107.909L582.835 107.288L574.317 99.0027L582.835 90.717L582.197 90.096L573.04 99.0027Z"
					  fill="#72727D"/>
			</g>
		</g>
		<g clip-path="url(#clip4_8310_390511)">
			<g clip-path="url(#clip5_8310_390511)">
				<path d="M834.45 92.768H818.418V95.44H817.528V91.8773H835.341V106.128H828.216V105.237H834.45V92.768ZM817.528 99.0027C821.463 99.0027 824.653 102.193 824.653 106.128H823.762C823.762 102.685 820.971 99.8933 817.528 99.8933V99.0027ZM821.981 106.128C821.981 103.668 819.987 101.675 817.528 101.675V102.565C819.495 102.565 821.09 104.16 821.09 106.128H821.981ZM817.528 104.347C818.512 104.347 819.309 105.144 819.309 106.128H817.528V104.347Z"
					  fill="#72727D"/>
				<path d="M856.717 99.0028C856.717 98.019 855.92 97.2214 854.936 97.2214C853.952 97.2214 853.155 98.019 853.155 99.0028C853.155 99.9866 853.952 100.784 854.936 100.784C855.92 100.784 856.717 99.9866 856.717 99.0028ZM863.843 99.0028C863.843 98.019 863.045 97.2214 862.061 97.2214C861.078 97.2214 860.28 98.019 860.28 99.0028C860.28 99.9866 861.078 100.784 862.061 100.784C863.045 100.784 863.843 99.9866 863.843 99.0028ZM869.187 97.2214C870.171 97.2214 870.968 98.019 870.968 99.0028C870.968 99.9866 870.171 100.784 869.187 100.784C868.203 100.784 867.405 99.9866 867.405 99.0028C867.405 98.019 868.203 97.2214 869.187 97.2214Z"
					  fill="#72727D"/>
			</g>
		</g>
		<g filter="url(#filter1_d_8310_390511)">
			<rect x="638" y="118" width="163" height="163" rx="8" fill="white"/>
			<path d="M719.5 180.588C699.271 156.187 678.108 185.975 693.358 202.137C708.607 218.299 719.5 228.756 719.5 228.756C719.5 228.756 730.392 218.299 745.642 202.137C760.892 185.659 739.729 156.187 719.5 180.588Z"
				  fill="#EF5466"/>
		</g>
		<g filter="url(#filter2_d_8310_390511)">
			<rect x="524" y="302.5" width="391.21" height="81.502" rx="18.0793" fill="white"/>
		</g>
		<rect x="545.725" y="324.202" width="62.6744" height="36.53" rx="18.265" fill="#4EEB55"/>
		<mask id="mask0_8310_390511" style="mask-type:alpha" maskUnits="userSpaceOnUse" x="545" y="324" width="64"
			  height="37">
			<rect x="545.725" y="324.202" width="62.6744" height="36.53" rx="18.265" fill="white"/>
		</mask>
		<g mask="url(#mask0_8310_390511)">
			<g filter="url(#filter3_ddd_8310_390511)">
				<rect x="574.153" y="326.486" width="31.9637" height="31.9637" rx="15.9819" fill="white"/>
				<rect x="573.867" y="326.2" width="32.5345" height="32.5345" rx="16.2672" stroke="black"
					  stroke-opacity="0.04" stroke-width="0.570781"/>
			</g>
		</g>
		<g opacity="0.3">
			<g clip-path="url(#clip6_8310_390511)">
				<path d="M849.111 352.305L844.04 347.233" stroke="black" stroke-width="1.72311" stroke-miterlimit="10"
					  stroke-linecap="square"/>
				<path d="M838.245 349.588C842.746 349.588 846.395 345.939 846.395 341.438C846.395 336.936 842.746 333.287 838.245 333.287C833.744 333.287 830.095 336.936 830.095 341.438C830.095 345.939 833.744 349.588 838.245 349.588Z"
					  stroke="black" stroke-width="1.72311" stroke-miterlimit="10" stroke-linecap="square"/>
			</g>
		</g>
		<g opacity="0.3">
			<path d="M886.686 339.167C884.048 339.167 882.644 336.053 884.391 334.076C885.61 332.696 887.762 332.696 888.981 334.076C890.728 336.053 889.324 339.167 886.686 339.167Z"
				  fill="black"/>
			<path d="M886.677 346.856C889.315 346.856 890.719 349.969 888.973 351.947C887.754 353.327 885.601 353.327 884.382 351.947C882.636 349.969 884.039 346.856 886.677 346.856Z"
				  fill="black"/>
		</g>
	</g>
	<defs>
		<filter id="filter0_f_8310_390511" x="51" y="-60" width="1336" height="909" filterUnits="userSpaceOnUse"
				color-interpolation-filters="sRGB">
			<feFlood flood-opacity="0" result="BackgroundImageFix"/>
			<feBlend mode="normal" in="SourceGraphic" in2="BackgroundImageFix" result="shape"/>
			<feGaussianBlur stdDeviation="130" result="effect1_foregroundBlur_8310_390511"/>
		</filter>
		<filter id="filter1_d_8310_390511" x="618" y="108" width="203" height="203" filterUnits="userSpaceOnUse"
				color-interpolation-filters="sRGB">
			<feFlood flood-opacity="0" result="BackgroundImageFix"/>
			<feColorMatrix in="SourceAlpha" type="matrix" values="0 0 0 0 0 0 0 0 0 0 0 0 0 0 0 0 0 0 127 0"
						   result="hardAlpha"/>
			<feOffset dy="10"/>
			<feGaussianBlur stdDeviation="10"/>
			<feComposite in2="hardAlpha" operator="out"/>
			<feColorMatrix type="matrix" values="0 0 0 0 0 0 0 0 0 0 0 0 0 0 0 0 0 0 0.1 0"/>
			<feBlend mode="normal" in2="BackgroundImageFix" result="effect1_dropShadow_8310_390511"/>
			<feBlend mode="normal" in="SourceGraphic" in2="effect1_dropShadow_8310_390511" result="shape"/>
		</filter>
		<filter id="filter2_d_8310_390511" x="468.86" y="247.361" width="501.489" height="191.781"
				filterUnits="userSpaceOnUse" color-interpolation-filters="sRGB">
			<feFlood flood-opacity="0" result="BackgroundImageFix"/>
			<feColorMatrix in="SourceAlpha" type="matrix" values="0 0 0 0 0 0 0 0 0 0 0 0 0 0 0 0 0 0 127 0"
						   result="hardAlpha"/>
			<feOffset/>
			<feGaussianBlur stdDeviation="27.5698"/>
			<feColorMatrix type="matrix" values="0 0 0 0 0 0 0 0 0 0 0 0 0 0 0 0 0 0 0.19 0"/>
			<feBlend mode="normal" in2="BackgroundImageFix" result="effect1_dropShadow_8310_390511"/>
			<feBlend mode="normal" in="SourceGraphic" in2="effect1_dropShadow_8310_390511" result="shape"/>
		</filter>
		<filter id="filter3_ddd_8310_390511" x="564.45" y="320.207" width="51.3705" height="51.3703"
				filterUnits="userSpaceOnUse" color-interpolation-filters="sRGB">
			<feFlood flood-opacity="0" result="BackgroundImageFix"/>
			<feColorMatrix in="SourceAlpha" type="matrix" values="0 0 0 0 0 0 0 0 0 0 0 0 0 0 0 0 0 0 127 0"
						   result="hardAlpha"/>
			<feOffset dy="3.42468"/>
			<feGaussianBlur stdDeviation="0.570781"/>
			<feColorMatrix type="matrix" values="0 0 0 0 0 0 0 0 0 0 0 0 0 0 0 0 0 0 0.1 0"/>
			<feBlend mode="normal" in2="BackgroundImageFix" result="effect1_dropShadow_8310_390511"/>
			<feColorMatrix in="SourceAlpha" type="matrix" values="0 0 0 0 0 0 0 0 0 0 0 0 0 0 0 0 0 0 127 0"
						   result="hardAlpha"/>
			<feOffset dy="1.14156"/>
			<feGaussianBlur stdDeviation="0.570781"/>
			<feColorMatrix type="matrix" values="0 0 0 0 0 0 0 0 0 0 0 0 0 0 0 0 0 0 0.16 0"/>
			<feBlend mode="normal" in2="effect1_dropShadow_8310_390511" result="effect2_dropShadow_8310_390511"/>
			<feColorMatrix in="SourceAlpha" type="matrix" values="0 0 0 0 0 0 0 0 0 0 0 0 0 0 0 0 0 0 127 0"
						   result="hardAlpha"/>
			<feOffset dy="3.42468"/>
			<feGaussianBlur stdDeviation="4.56625"/>
			<feColorMatrix type="matrix" values="0 0 0 0 0 0 0 0 0 0 0 0 0 0 0 0 0 0 0.15 0"/>
			<feBlend mode="normal" in2="effect2_dropShadow_8310_390511" result="effect3_dropShadow_8310_390511"/>
			<feBlend mode="normal" in="SourceGraphic" in2="effect3_dropShadow_8310_390511" result="shape"/>
		</filter>
		<radialGradient id="paint0_radial_8310_390511" cx="0" cy="0" r="1" gradientUnits="userSpaceOnUse"
						gradientTransform="translate(506.5 342.788) rotate(2.45845) scale(529.487 255.398)">
			<stop stop-color="#FF0935"/>
			<stop offset="1" stop-color="#FF0935"/>
		</radialGradient>
		<clipPath id="clip0_8310_390511">
			<rect width="1440" height="373" fill="white"/>
		</clipPath>
		<clipPath id="clip1_8310_390511">
			<rect width="155.123" height="16.032" fill="white" transform="translate(553 53.5787)"/>
		</clipPath>
		<clipPath id="clip2_8310_390511">
			<rect width="114.562" height="21.376" fill="white" transform="translate(567.25 88.3147)"/>
		</clipPath>
		<clipPath id="clip3_8310_390511">
			<rect width="21.376" height="21.376" fill="white" transform="translate(567.25 88.3147)"/>
		</clipPath>
		<clipPath id="clip4_8310_390511">
			<rect width="179.915" height="21.376" fill="white" transform="translate(692.834 88.3147)"/>
		</clipPath>
		<clipPath id="clip5_8310_390511">
			<rect width="57.0027" height="21.376" fill="white" transform="translate(815.747 88.3147)"/>
		</clipPath>
		<clipPath id="clip6_8310_390511">
			<rect x="829.188" y="332.383" width="21.7339" height="21.7339" rx="10.8669" fill="white"/>
		</clipPath>
	</defs>
</svg>
